<?xml version="1.0" encoding="utf-8"?>
<!-- Generator: Adobe Illustrator 22.1.0, SVG Export Plug-In . SVG Version: 6.00 Build 0)  -->
<svg version="1.1" id="Layer_1" xmlns="http://www.w3.org/2000/svg" xmlns:xlink="http://www.w3.org/1999/xlink" x="0px" y="0px"
	 viewBox="0 0 2730 1821" style="enable-background:new 0 0 2730 1821;" xml:space="preserve">
<style type="text/css">
	.st0{display:none;}
	.st1{display:inline;}
	.st2{fill:#FFFFFF;}
	.st3{fill:#263238;}
	.st4{fill:#8EA9FC;}
	.st5{fill:#ECA541;}
	.st6{fill:#5E84FB;}
	.st7{opacity:7.000000e-02;}
	.st8{fill:#F4F4F4;}
	.st9{fill:#BFCEFE;}
	.st10{fill:#E0E0E0;}
	.st11{fill:#FFD3C9;}
	.st12{fill:#EA7D84;}
	.st13{fill:#DFE6FE;}
</style>
<g class="st0">
	<g class="st1">
		<g>
			<rect x="391" y="2019.9" class="st2" width="2730" height="1821"/>
		</g>
	</g>
</g>
<g>
	<g>
		<g>
			<g>
				<g>
					<path class="st3" d="M2100.1,1590.7c-1.9,35.3-32.2,64.1-67.5,64.1h-825.3c-35.3,0-62.6-28.9-60.8-64.1l61-1163.1
						c1.9-35.3,32.2-64.1,67.5-64.1h825.3c35.3,0,62.6,28.9,60.8,64.1L2100.1,1590.7z"/>
				</g>
			</g>
			<g>
				<g>
					<path class="st4" d="M2083.9,1590.7c-1.9,35.3-32.2,64.1-67.5,64.1h-825.3c-35.3,0-62.6-28.9-60.8-64.1l61-1163.1
						c1.9-35.3,32.2-64.1,67.5-64.1h825.3c35.3,0,62.6,28.9,60.8,64.1L2083.9,1590.7z"/>
				</g>
			</g>
			<g>
				<g>
					<g>
						<path class="st5" d="M1350.3,1305.1c1.7,0,3.2-1.9,0.8-1.9C1349.3,1303.2,1347.8,1305.1,1350.3,1305.1L1350.3,1305.1z"/>
					</g>
				</g>
			</g>
			<g>
				<g>
					<g>
						<path class="st6" d="M1637,464.5c-87.4-6.2-174.1-17-260.6-28.4c-60.8-8-122.4-12.5-183.1-21c-0.3,1.4-0.6,2.7-0.9,4.1
							c37.1,5.1,74.5,8.7,111.8,12.2c67.7,6.2,134.9,17.4,202.4,25c135.4,15.2,271.6,21,408.8,16.8c76-2.3,152-7.4,227.9-14.8
							l0.2-3.6C1974.5,471.4,1804.9,476.5,1637,464.5z"/>
					</g>
				</g>
				<g>
					<g>
						<path class="st6" d="M1763.5,425.7c67,5.2,134.4,7.7,202,6.2c60-1.3,119.7-6.6,179.3-14.1c-0.1-1.3-0.3-2.5-0.5-3.7
							c-50.7,6.4-101.4,11.1-152.4,13.1c-69.6,2.7-139.1,0.6-208.2-4.2c-69.1-4.8-137.5-14.7-205.7-24.6
							c-68.9-10-137.8-20.8-205.7-35h-21.4c68.3,14.9,137.7,26.1,207.2,36.4C1626.1,410,1694.6,420.4,1763.5,425.7z"/>
					</g>
				</g>
				<g>
					<g>
						<path class="st6" d="M1184.3,563.1l-0.2,4.2c107.8-16.6,216.5-23.6,324.8-26.5c137.9-3.6,276-3.1,413.3,3.2
							c72.1,3.3,144.1,8.6,215.7,16.1l0.2-4.2c-142.1-14.9-285.7-20.7-429.3-21.1C1534.5,534.2,1358.4,536.3,1184.3,563.1z"/>
					</g>
				</g>
				<g>
					<g>
						<path class="st6" d="M1636.3,591.1c-154.8,5.6-311.8,28.9-458,88.3l-0.2,4.1c230.8-95,486.4-98.6,727.1-85.7
							c77,4.1,153.9,11.5,229.7,23.2l0.2-4c-35.7-5.5-71.6-10-107.6-13.7C1898.3,590.2,1766.9,586.4,1636.3,591.1z"/>
					</g>
				</g>
				<g>
					<g>
						<path class="st6" d="M1512.6,774.2c-112.9-4-225.9-5.2-339.2-3.7l-0.2,4c26.1-0.4,52.1-0.7,78.2-0.7
							c141.9-0.5,283.3,4.9,424.9,9.6c56.2,1.9,112.4,4.3,168.4,8.3c55.7,3.9,110.9,10.8,166,18.5c37.9,5.3,75.6,11.2,113.3,17.5
							l0.2-4.3c-63.8-10.7-128-20-192.5-27.6C1793.3,779.3,1652.4,779.2,1512.6,774.2z"/>
					</g>
				</g>
				<g>
					<g>
						<path class="st6" d="M1513.2,646.1c-10.4,2.7-24.5,5.7-32.3,14.1c-8.7,9.3,13.2,18.9,18.1,21.5c20.7,11,44.8,16.1,68.1,20.1
							c29.8,5,59.9,9.1,90.1,11.7c33.7,2.9,67.6,4.3,101.3,7.3c34.4,3.1,68.5,8.1,102.8,12.3c68.7,8.3,137.5,16.2,206.4,23.6
							c19.9,2.1,39.9,4.2,59.8,6.3l0.2-4.6c-68.4-7-136.7-14.6-204.9-22.6c-68.3-8-136.3-18-205.1-22.5
							c-33.9-2.2-67.8-4.3-101.3-8.9c-26.9-3.7-54.2-7.2-80.2-14.5c-12.2-3.4-24.1-7.9-35-14.1c-3.5-2-15.4-7.5-13.6-13.2
							c2.9-9.5,28.5-13,36.1-14.8c42.2-10,84.1-13.3,127-14c141.6-2.5,281.6,20.4,418.6,47.4c20.7,4.1,41.3,8.3,61.8,12.7l0.3-5.2
							C2030.6,667,1929,648,1826.2,638C1723.6,628.1,1615.9,619.8,1513.2,646.1z"/>
					</g>
				</g>
				<g>
					<g>
						<path class="st6" d="M1319,825.1c-49.3-3.7-98.7-3.5-148.2-2.9l-0.2,4.2c41.2-1,82.5-1.5,123.1,1.9
							c69,5.7,138.2,9.1,207.5,11.6c142.3,5.2,284.4,10,426.5,17.5c64.8,3.4,129.5,7.1,194.3,11l0.3-5c-186.4-11-373-20.7-560-26.4
							C1481,834.4,1399.8,831.1,1319,825.1z"/>
					</g>
				</g>
				<g>
					<g>
						<path class="st6" d="M1861.3,980.5c-70.4-4.3-140.5-10.6-210.5-17.6c-68.7-6.8-137.5-12.7-205.9-20.9
							c-93.5-11.1-186.4-25.5-278.1-44.7l-0.3,6.1c102.4,21.2,206.3,36.4,310.7,48.1c68.8,7.7,137.9,13.7,206.9,20.3
							c70,6.7,140.2,12.4,210.6,16c73.4,3.8,147.1,5.2,220.9,3.1l0.3-5.3C2030.7,988,1945.8,985.6,1861.3,980.5z"/>
					</g>
				</g>
				<g>
					<g>
						<path class="st6" d="M1849.3,1070.4c-138.2-9.4-274.7-30.1-411.2-49.5c-66.2-9.4-132.1-20.9-197-35.9
							c-26.3-6.1-52.2-13.3-77.9-21.1l-0.3,5.6c25.1,7.5,50.5,14.5,76.2,20.5c65.5,15.2,132.1,26.4,198.9,35.9
							c136.6,19.4,273.1,39.7,411.3,49.2c68.8,4.7,137.6,8.1,206.9,7.6c18.1-0.2,36.2-0.5,54.3-1l0.2-4.6c-16.1,0.4-32.3,0.8-48.4,1
							C1991.1,1078.9,1920.2,1075.2,1849.3,1070.4z"/>
					</g>
				</g>
				<g>
					<g>
						<path class="st6" d="M1579.7,1147.4c-103.9,13-208.1,32.8-309.5,62.1c-41.7,12.1-81.8,27.4-122.1,43.3l-0.3,5
							c7.3-2.9,14.7-5.9,22-8.8c62.4-25,127.1-43.1,192.1-58.1c134.1-30.9,270.3-48.1,406.4-55.3c113.4-6,226.7-5,339.4,1.5l0.3-5.2
							C1932.6,1121.9,1755.8,1125.3,1579.7,1147.4z"/>
					</g>
				</g>
				<g>
					<g>
						<path class="st6" d="M1377.4,1116.3c26.5-8.5,55.3-12.1,79.6-27c2.1-1.3,0.4-2.6-1.1-2.9c-11.1-2.3-21.9-0.9-33.2-0.1
							c-13.3,0.9-26.8-1.2-39.8-3.2c-24.9-3.9-49.9-7.7-74.8-12.1c-50.6-9-100.2-21.9-148.4-38.3l-0.3,5.2
							c46,15.4,93.2,27.4,141.2,36.3c25,4.6,50.2,8,75.2,12.3c11.3,1.9,22.6,3.2,34.1,3.8c12.6,0.6,25.2-2,37.6-0.6
							c-24.4,13.5-54,17.2-80,25.7c-30.2,9.9-60.5,19-91.2,27.5c-41.2,11.5-82.7,22.1-124.2,32.2l-0.2,4
							c43.8-10.6,87.4-21.8,130.8-33.9C1314.6,1136.3,1345.9,1126.3,1377.4,1116.3z"/>
					</g>
				</g>
				<g>
					<g>
						<path class="st6" d="M1793.4,1229.4c-134.1,1.5-268.7,15.6-401.5,42.5c-34.7,7-69.2,15.1-103.5,24.5
							c-35.5,9.7-70,22.1-105,33.4c-13.3,4.3-26.7,8.6-40,13.1l-0.3,5.7c13.5-4.6,27-8.9,40.4-13.2c30.9-10,61.4-21.1,92.7-30.1
							c33.2-9.6,66.8-17.7,100.4-24.9c134.2-28.7,270.6-43.1,406.3-45.4c70.8-1.2,141.2,1.3,211.2,8.4c35.9,3.7,71.7,8.4,107.3,13.8
							l0.3-5.8c-34.2-5.1-68.5-9.6-102.9-13.2C1930.8,1231,1862.2,1228.6,1793.4,1229.4z"/>
					</g>
				</g>
				<g>
					<g>
						<path class="st6" d="M1485.6,1355.8c-117.3,8.1-236.2,28.1-346.7,73.1l-0.3,5.6c86.7-36,179-56.1,271.3-66.9
							c135.7-16,272.3-14.7,407.2-6.9c92.8,5.4,185.5,12.7,277.7,22.9l0.3-5.2c-67.3-7.3-134.9-13.1-202.5-17.9
							C1757.3,1351,1622,1346.4,1485.6,1355.8z"/>
					</g>
				</g>
				<g>
					<g>
						<path class="st6" d="M1745,1473.1c-68-3.4-136.1-6.8-204.4-5.2c-136.9,3.3-274.3,24.1-407.1,64l-0.2,3.5
							c101.2-30.6,205.2-50,309.6-58.9c137.7-11.8,275.3-2.7,411.8,6.4c78.2,5.2,156.2,12.2,233.8,21.6l0.2-3.7
							c-46.6-5.6-93.3-10.4-140.1-14.4C1880.9,1480.8,1813,1476.6,1745,1473.1z"/>
					</g>
				</g>
				<g>
					<g>
						<path class="st6" d="M1852.7,1619.7c-69-4.6-138.1-8-207.3-10c-102.6-2.9-205.2-3.5-308.1,2.2c-65.2,3.7-130.3,9.7-195.2,18.2
							c1,1.4,2,2.7,3.1,4c241.7-30.3,484.1-25.6,724.8-8.8c49.9,3.5,99.8,7.6,149.6,12.1c12.4,1.1,24.7,2.4,37.1,3.8
							c1.5-1.1,3-2.3,4.4-3.6c-0.3,0-0.5-0.1-0.8-0.1C1991.6,1628.7,1921.9,1624.3,1852.7,1619.7z"/>
					</g>
				</g>
			</g>
			<g class="st7">
				<g>
					<path d="M2061.3,459.8h-750.8l-59.7,1137.1c0,0,214-21.2,376.5-21.2c162.5,0,374.3,21.2,374.3,21.2L2061.3,459.8z"/>
				</g>
			</g>
			<g>
				<g>
					<polygon class="st8" points="2049.1,444.8 1285.5,444.8 1226.3,1573.4 1989.9,1573.4 					"/>
				</g>
			</g>
			<g class="st7">
				<g>
					<path d="M1660.6,363.4l-11.2,14.4l-176.7,41.7c-8.4,2-16.7,7.9-21.8,15.4l-50.7,75.5c-9.4,13.9-4.4,27.7,10.1,27.7H1921
						c14.5,0,30.4-13.7,32.2-27.7l9.5-75.5c1-7.6-2.7-13.5-9.5-15.4l-143.4-41.7l0.3-14.4H1660.6z"/>
				</g>
			</g>
			<g>
				<g>
					<g>
						<path class="st9" d="M1908.9,419L1751,377.3l-14.1-43.1c18.9-17.3,31.2-41.7,32-68.8c1.4-47.4-34.5-87-81.7-89.9
							c-53.5-3.3-100.2,39.2-103,92.1c-1.4,26.2,8.3,49.8,25,66.6l-18.6,43.1L1428.4,419c-7.7,2-14,7.9-16.4,15.4l-24.6,75.5
							c-4.5,13.9,5.2,27.7,19.7,27.7h510.6c14.5,0,25.7-13.7,22.6-27.7l-16.6-75.5C1922,426.9,1916.4,421,1908.9,419z M1679.8,206.3
							c11.8,0,20.9,9.6,20.3,21.4c-0.6,11.8-10.7,21.4-22.5,21.4c-11.8,0-20.9-9.6-20.3-21.4C1657.9,215.9,1668,206.3,1679.8,206.3z
							"/>
					</g>
				</g>
			</g>
		</g>
	</g>
	<g>
		<g>
			<g>
				<path d="M1518.2,734.6h-7.4l3.5-66.5h-24.5l0.4-6.6h56.3l-0.4,6.6h-24.5L1518.2,734.6z"/>
			</g>
		</g>
		<g>
			<g>
				<path d="M1624.7,698c-0.3,5.6-1.5,10.7-3.7,15.4c-2.2,4.7-5.1,8.7-8.6,12.1c-3.6,3.4-7.8,6.1-12.5,8c-4.7,1.9-9.8,2.9-15.3,2.9
					c-5.4,0-10.4-1-15-2.9c-4.5-1.9-8.4-4.6-11.7-8c-3.2-3.4-5.7-7.4-7.4-12.1c-1.7-4.7-2.4-9.8-2.1-15.4c0.3-5.6,1.5-10.7,3.7-15.4
					c2.2-4.7,5.1-8.7,8.6-12.1c3.6-3.4,7.8-6.1,12.5-8c4.7-1.9,9.8-2.9,15.3-2.9c5.4,0,10.4,1,15,2.9c4.5,1.9,8.4,4.6,11.7,8
					c3.2,3.4,5.7,7.4,7.4,12.1C1624.3,687.3,1625,692.4,1624.7,698z M1616.8,698.1c0.2-4.3-0.2-8.3-1.4-12.2
					c-1.2-3.8-3-7.2-5.4-10.1c-2.5-2.9-5.5-5.2-9.2-7c-3.7-1.7-7.8-2.6-12.5-2.6c-4.7,0-8.9,0.9-12.8,2.6c-3.8,1.7-7.1,4-9.9,7
					c-2.8,2.9-4.9,6.3-6.5,10.1c-1.6,3.8-2.5,7.9-2.7,12.2c-0.2,4.3,0.2,8.3,1.4,12.2c1.2,3.8,3,7.2,5.5,10.1
					c2.5,2.9,5.5,5.2,9.2,6.9c3.7,1.7,7.8,2.6,12.5,2.6c4.7,0,8.9-0.9,12.8-2.6c3.8-1.7,7.1-4,9.9-6.9c2.8-2.9,4.9-6.3,6.5-10.1
					C1615.7,706.4,1616.6,702.3,1616.8,698.1z"/>
			</g>
			<g>
				<path d="M1667.9,661.5h24.3c4.5,0,9.1,0.8,13.6,2.3c4.5,1.5,8.5,3.8,12,6.9c3.5,3.1,6.3,6.9,8.3,11.5c2,4.6,2.9,9.9,2.6,15.9
					c-0.3,6.1-1.7,11.5-4.3,16c-2.5,4.5-5.7,8.3-9.5,11.4c-3.8,3.1-8.1,5.4-12.7,6.9c-4.7,1.5-9.3,2.3-13.8,2.3H1664L1667.9,661.5z
					 M1671.8,727.9h14.8c5.5,0,10.3-0.9,14.5-2.6c4.2-1.7,7.7-4,10.5-6.8c2.8-2.8,5-6,6.5-9.5c1.5-3.6,2.4-7.3,2.6-11
					c0.2-3.8-0.3-7.5-1.4-11c-1.2-3.6-3-6.8-5.5-9.5c-2.5-2.8-5.8-5-9.8-6.8c-4-1.7-8.8-2.6-14.3-2.6H1675L1671.8,727.9z"/>
			</g>
			<g>
				<path d="M1816.3,698c-0.3,5.6-1.5,10.7-3.7,15.4c-2.2,4.7-5.1,8.7-8.6,12.1c-3.6,3.4-7.8,6.1-12.5,8c-4.7,1.9-9.8,2.9-15.3,2.9
					c-5.4,0-10.4-1-15-2.9c-4.5-1.9-8.4-4.6-11.7-8c-3.2-3.4-5.7-7.4-7.4-12.1c-1.7-4.7-2.4-9.8-2.1-15.4c0.3-5.6,1.5-10.7,3.7-15.4
					c2.2-4.7,5.1-8.7,8.6-12.1c3.6-3.4,7.8-6.1,12.5-8c4.7-1.9,9.8-2.9,15.3-2.9c5.4,0,10.4,1,15,2.9c4.5,1.9,8.4,4.6,11.6,8
					c3.2,3.4,5.7,7.4,7.4,12.1C1815.9,687.3,1816.6,692.4,1816.3,698z M1808.5,698.1c0.2-4.3-0.2-8.3-1.4-12.2
					c-1.2-3.8-3-7.2-5.4-10.1c-2.5-2.9-5.5-5.2-9.2-7c-3.7-1.7-7.8-2.6-12.5-2.6c-4.7,0-8.9,0.9-12.8,2.6c-3.8,1.7-7.1,4-9.9,7
					c-2.8,2.9-4.9,6.3-6.5,10.1c-1.6,3.8-2.5,7.9-2.7,12.2c-0.2,4.3,0.2,8.3,1.4,12.2c1.2,3.8,3,7.2,5.5,10.1
					c2.5,2.9,5.5,5.2,9.2,6.9c3.7,1.7,7.8,2.6,12.5,2.6c4.7,0,8.9-0.9,12.8-2.6c3.8-1.7,7.1-4,9.9-6.9c2.8-2.9,4.9-6.3,6.5-10.1
					C1807.3,706.4,1808.2,702.3,1808.5,698.1z"/>
			</g>
		</g>
	</g>
	<g>
		<g>
			<path class="st3" d="M1469.6,941.8h-75.1l4-75.1h75.1L1469.6,941.8z M1399.7,936.8h65.1l3.5-65.1h-65.1L1399.7,936.8z"/>
		</g>
		<g>
			<rect x="1532.8" y="866.6" class="st3" width="357.3" height="5"/>
		</g>
		<g>
			<rect x="1530.9" y="901.7" class="st3" width="357.3" height="5"/>
		</g>
		<g>
			<rect x="1529.1" y="936.8" class="st3" width="217.3" height="5"/>
		</g>
	</g>
	<g>
		<g>
			<path class="st3" d="M1459,1142h-75.1l4-75.1h75.1L1459,1142z M1389.1,1137h65.1l3.5-65.1h-65.1L1389.1,1137z"/>
		</g>
		<g>
			<rect x="1522.2" y="1066.9" class="st3" width="357.3" height="5"/>
		</g>
		<g>
			<rect x="1520.3" y="1101.9" class="st3" width="357.3" height="5"/>
		</g>
		<g>
			<rect x="1518.4" y="1137" class="st3" width="217.3" height="5"/>
		</g>
	</g>
	<g>
		<g>
			<path class="st3" d="M1448.3,1342.2h-75.1l4-75.1h75.1L1448.3,1342.2z M1378.5,1337.2h65.1l3.5-65.1h-65.1L1378.5,1337.2z"/>
		</g>
		<g>
			<rect x="1511.5" y="1267.1" class="st3" width="357.3" height="5"/>
		</g>
		<g>
			<rect x="1509.7" y="1302.2" class="st3" width="357.3" height="5"/>
		</g>
		<g>
			<rect x="1507.8" y="1337.2" class="st3" width="217.3" height="5"/>
		</g>
	</g>
	<g>
		<polygon class="st3" points="1428.5,923.3 1416.2,898.4 1420.6,896.2 1429.6,914.2 1493.2,838.2 1497,841.4 		"/>
	</g>
</g>
<g>
	<g>
		<g>
			<g>
				<g>
					<g>
						<path class="st6" d="M2150.1,1621c31.1,10,61.2,13.3,111.7-5.2c14.8-5.4,39.2-19.6,46.5-33.5c7.3-13.9,5.5-29.9-7.5-38.7
							c-14.5-9.8-20.3-3.6-36.9,1.8c-16.7,5.4-27.7,0.6-32-8.7c-7.9-16.7,14.9-34.4,32.1-41c17.2-6.6,37.9-10.2,47.6-25.9
							c12.8-20.4-7.5-49.1-31-44.4c-15.3,3-31.2,13-40.4,0.4c-8.4-11.5,2.6-27.8,14.4-35.9c11.8-8.1,31.7-27.6,23.6-55.3
							c-5.1-17.3-26.3-22.9-43.9-11.6c-17.2,11-28.2,35-35,53.7c-6.2,17.1-21.9,26.3-35.1,15.3c-7.1-5.9-8.2-18.6-13.5-26.2
							c-9.4-13.5-33.3-4-37.5,11.9c-4.2,15.9,4.3,32.2,13.4,45.9c9.1,13.7,19.5,28,19.6,44.4c0.1,16.4-16.7,33.5-31.6,26.7
							c-11.8-5.4-16.7-22.8-29.6-24.2c-15.4-1.7-21.6,19.7-19.7,35.2C2071.2,1557,2118.9,1611,2150.1,1621z"/>
					</g>
				</g>
			</g>
		</g>
		<g>
			<g>
				<g>
					<g>
						<path class="st3" d="M2149,1647.3c25.3-140.9,94.2-295.4,94.9-296.9l-1.6-0.7c-0.7,1.5-69.7,156.2-95,297.3L2149,1647.3z"/>
					</g>
				</g>
			</g>
		</g>
	</g>
	<g>
		<g>
			<g>
				<g>
					
						<rect x="2192.4" y="1466.8" transform="matrix(0.9721 -0.2346 0.2346 0.9721 -281.8963 565.5993)" class="st3" width="87.9" height="1.7"/>
				</g>
			</g>
		</g>
	</g>
	<g>
		<g>
			<g>
				<g>
					
						<rect x="2172.7" y="1402.1" transform="matrix(0.7052 -0.709 0.709 0.7052 -378.6929 1964.8949)" class="st3" width="1.7" height="71.5"/>
				</g>
			</g>
		</g>
	</g>
	<g>
		<g>
			<g>
				<g>
					
						<rect x="2158.4" y="1588.5" transform="matrix(0.9891 -0.1472 0.1472 0.9891 -209.9467 341.87)" class="st3" width="92.7" height="1.7"/>
				</g>
			</g>
		</g>
	</g>
	<g>
		<g>
			<g>
				<g>
					
						<rect x="2130.3" y="1516.9" transform="matrix(0.6477 -0.7619 0.7619 0.6477 -435.711 2172.5493)" class="st3" width="1.7" height="81"/>
				</g>
			</g>
		</g>
	</g>
</g>
<g>
	<g>
		<g>
			<g>
				<g>
					<g>
						<path class="st10" d="M491.4,1624.8c-26.6,8.6-52.4,11.4-95.5-4.5c-12.6-4.6-33.6-16.8-39.8-28.7c-6.3-11.9-4.7-25.6,6.4-33.1
							c12.4-8.4,17.3-3.1,31.6,1.5c14.2,4.6,23.7,0.5,27.4-7.4c6.7-14.3-12.7-29.4-27.5-35.1c-14.7-5.7-32.4-8.8-40.8-22.1
							c-10.9-17.4,6.4-42,26.6-38c13.1,2.6,26.7,11.1,34.6,0.3c7.2-9.8-2.2-23.8-12.3-30.7c-10.1-6.9-27.2-23.6-20.2-47.3
							c4.4-14.8,22.5-19.6,37.6-9.9c14.7,9.4,24.1,29.9,29.9,46c5.3,14.7,18.8,22.5,30,13.1c6.1-5.1,7-15.9,11.5-22.4
							c8.1-11.5,28.5-3.4,32.1,10.2s-3.7,27.5-11.5,39.2c-7.8,11.7-16.7,23.9-16.8,38c-0.1,14.1,14.3,28.7,27.1,22.8
							c10.1-4.7,14.3-19.5,25.4-20.7c13.2-1.5,18.5,16.9,16.9,30.1C558.8,1570,518,1616.2,491.4,1624.8z"/>
					</g>
				</g>
			</g>
		</g>
		<g>
			<g>
				<g>
					<g>
						<path class="st3" d="M492.3,1647.3c-21.7-120.6-80.6-252.7-81.2-254l1.3-0.6c0.6,1.3,59.6,133.6,81.3,254.4L492.3,1647.3z"/>
					</g>
				</g>
			</g>
		</g>
	</g>
	<g>
		<g>
			<g>
				<g>
					
						<rect x="416.8" y="1456" transform="matrix(0.2346 -0.9721 0.9721 0.2346 -1132.3925 1549.0621)" class="st3" width="1.5" height="75.2"/>
				</g>
			</g>
		</g>
	</g>
	<g>
		<g>
			<g>
				<g>
					
						<rect x="440.7" y="1467.4" transform="matrix(0.709 -0.7052 0.7052 0.709 -898.1816 759.6069)" class="st3" width="61.1" height="1.5"/>
				</g>
			</g>
		</g>
	</g>
	<g>
		<g>
			<g>
				<g>
					
						<rect x="443.8" y="1558.1" transform="matrix(0.1472 -0.9891 0.9891 0.1472 -1201.2467 1802.2485)" class="st3" width="1.5" height="79.3"/>
				</g>
			</g>
		</g>
	</g>
	<g>
		<g>
			<g>
				<g>
					
						<rect x="472.9" y="1569.6" transform="matrix(0.7619 -0.6477 0.6477 0.7619 -896.2474 702.578)" class="st3" width="69.3" height="1.5"/>
				</g>
			</g>
		</g>
	</g>
</g>
<g>
	<g>
		<g>
			<g>
				<g>
					<g>
						<g>
							<path class="st11" d="M960.9,1260c132.3,72.4,120.1-138.3,120.2-140.1c0.5-7.6,7.5-10.9,11.5-9.5c2.6,0.9,4.1,4,4.2,7.9
								c2.5-3,5.6-4.4,8.2-3.5c2.6,0.9,4.1,4,4.2,7.9c2.5-3,5.6-4.4,8.2-3.5c2.6,0.9,4.1,4,4.2,7.9c2.5-3,5.6-4.4,8.2-3.5
								c4,1.4,3.1,14.6,3.1,14.6c-26.5,214-128.8,193.8-193,160.1l-3-27.7L960.9,1260z"/>
						</g>
					</g>
				</g>
			</g>
		</g>
		<g>
			<g>
				<g>
					<g>
						<g>
							<path class="st6" d="M924.1,1236.4l-40,26.7c0,0,28.5,20.7,55.6,35l21.2-38C952.5,1255.4,933.7,1243.3,924.1,1236.4z"/>
						</g>
					</g>
				</g>
			</g>
		</g>
		<g>
			<g>
				<g>
					<g>
						<g>
							<g>
								<g>
									<g>
										<g>
											<g>
												<g>
													<path class="st11" d="M561.3,1312.3c0,0-82.8-308.4,106.8-366.8c238.1-73.3,256,290.9,256,290.9L561.3,1312.3z"/>
												</g>
											</g>
										</g>
									</g>
								</g>
							</g>
						</g>
					</g>
				</g>
			</g>
			<g>
				<g>
					<g>
						<g>
							<g>
								<g>
									<g>
										<g>
											<g>
												<g>
													<g>
														<g>
															<path class="st3" d="M869.4,790.5c0,0,108.2,231.3-264.3,260.3l6.8,80.2c0,0-37-24.1-39.4,12.7
																c-2.8,42.4,34.9,17.7,34.9,17.7s-17.6,100-48.6,141.1c-5.9-5.2-184.8-341.8-20.6-350c-0.3-9.7,8.5-76.9,98.2-107.7
																C772.1,798.2,794,908.6,869.4,790.5z"/>
														</g>
													</g>
												</g>
											</g>
										</g>
									</g>
								</g>
							</g>
						</g>
					</g>
				</g>
			</g>
			<g>
				<g>
					<g>
						<g>
							<g>
								<path class="st3" d="M691.1,1119c3.8,13.7,1.2,26.4-5.9,28.4c-7.1,2-15.9-7.5-19.8-21.3c-3.8-13.7-1.2-26.4,5.9-28.4
									C678.4,1095.8,687.3,1105.3,691.1,1119z"/>
							</g>
						</g>
					</g>
				</g>
			</g>
			<g>
				<g>
					<g>
						<g>
							<g>
								<path class="st3" d="M841,1075.7c3.8,13.7,1.2,26.4-5.9,28.4c-7.1,2-15.9-7.5-19.8-21.3c-3.8-13.7-1.2-26.4,5.9-28.4
									C828.3,1052.5,837.1,1062,841,1075.7z"/>
							</g>
						</g>
					</g>
				</g>
			</g>
			<g>
				<g>
					<g>
						<g>
							<g>
								<path class="st12" d="M826.2,1149.4c-15.8,2.6-68.5,12.3-103.1,29.4c-2.4,1.2-3.7,3.8-3.1,6.5c3.1,13.3,16.9,50.9,71.4,36.9
									c53.7-13.8,45.6-55,41.2-68.9C831.7,1150.6,829,1148.9,826.2,1149.4z"/>
							</g>
						</g>
					</g>
				</g>
			</g>
			<g>
				<g>
					<g>
						<g>
							<g>
								<path class="st3" d="M889.9,1733.1l39.4-94.9c5.3-38.5,9.9-80.2,13.2-115.1c-131.4,9.1-247.5,16.5-342,11.7
									c3.5,34.3,5.6,66.1,5.6,99.8l-20.4,121.7c0,0,115.4,25.3,96.6-12.3c-26.4-52.7-75.6-9-75.6-9l37.3-93.5l12.5-70.3
									c156.8,6.2,235.1-7.3,235.1-7.3l0.1,73.1l-24.2,119.4c0,0,134.1,24.2,90.7-27.9C924.8,1688.8,889.9,1733.1,889.9,1733.1z"/>
							</g>
						</g>
					</g>
				</g>
			</g>
			<g>
				<g>
					<g>
						<g>
							<g>
								<path class="st6" d="M942.5,1523.2c5.4-106.2,6.1-164.3-18.4-286.8l-365.3,66.2c16.3,71.2,26.8,127.4,41.7,232.4
									C695,1539.7,801.3,1543.6,942.5,1523.2z"/>
							</g>
						</g>
					</g>
				</g>
			</g>
			<g>
				<g>
					<g>
						<g>
							<g>
								<path class="st6" d="M589.2,1333l-30.4-30.4c0,0-10.6,19-18.4,45.3l21.8,6.7l16.5,5.1C581.2,1351.4,584.7,1342.5,589.2,1333
									z"/>
							</g>
						</g>
					</g>
				</g>
			</g>
		</g>
	</g>
	<g>
		<g>
			<g>
				<g>
					<g>
						<g>
							<g>
								<g>
									<path class="st9" d="M1232.1,977.8c0,0,3.7,20.5,11.8,30.1c8,9.6,27.6,16.9,27.6,16.9l-672.9,562.8l-39.3-47L1232.1,977.8z
										"/>
								</g>
							</g>
						</g>
					</g>
					<g>
						<g>
							<g>
								<g>
									<path class="st4" d="M1271.4,1024.8c0,0-0.1,10,5.2,16.3c4.6,5.5,12.7,7.5,14.7,8c-0.8,1-1.7,1.8-2.4,2.5
										c0,0-625.2,522.9-670.1,560.4l-20.4-24.3L1271.4,1024.8z"/>
								</g>
							</g>
						</g>
					</g>
					<g>
						<g>
							<g>
								<g>
									<path class="st3" d="M1334.3,928.1c1.7-0.3,3.1,0,3.8,0.9c0.7,0.9,0.9,2.2,0.2,3.9l-13.9,35.6l-27.7-33.1L1334.3,928.1z"/>
								</g>
							</g>
						</g>
					</g>
					<g>
						<g>
							<g>
								<g>
									<path class="st4" d="M519.1,1532.7l80,95.7c-4.1,3.4-14.5,12.1-14.7,12.3c-26.4,22.1-57.9,12-80-14.4
										c-22.1-26.4-26.5-59.2-0.1-81.3C504.6,1544.8,515,1536.1,519.1,1532.7z"/>
								</g>
							</g>
						</g>
					</g>
					<g>
						<g>
							<g>
								<g>
									<path class="st13" d="M538.8,1516.2l80,95.7c-8.2,6.9-15.1,12.6-19.7,16.5l-80-95.7
										C523.7,1528.8,530.6,1523.1,538.8,1516.2z"/>
								</g>
							</g>
						</g>
					</g>
					<g>
						<g>
							<g>
								<g>
									<path class="st13" d="M1220.1,950.5l76.7-15l27.7,33.1l-28.3,72.8c-0.9,2.3-2.8,5.3-4.8,7.6c-2-0.4-10-2.4-14.7-8
										c-5.3-6.3-5.2-16.3-5.2-16.3s-19.5-7.3-27.6-16.9c-8-9.6-11.8-30.1-11.8-30.1s-9.8-1.7-15.1-8c-4.6-5.5-5.2-13.9-5.2-15.9
										C1214.4,952.3,1217.6,951,1220.1,950.5z"/>
								</g>
							</g>
						</g>
					</g>
					<g>
						<g>
							<g>
								<g>
									<path class="st4" d="M1232.1,977.8l-672.9,562.8l-20.3-24.3c44.8-37.5,670.1-560.4,670.1-560.4c0.8-0.7,1.8-1.3,2.9-2
										c0.1,2,0.6,10.3,5.2,15.9C1222.3,976,1232.1,977.8,1232.1,977.8z"/>
								</g>
							</g>
						</g>
					</g>
				</g>
			</g>
		</g>
	</g>
	<g>
		<g>
			<g>
				<g>
					<g>
						<path class="st11" d="M1081.2,1119.9c0.5-7.6,7.5-10.9,11.5-9.5c2.6,0.9,4.1,4,4.2,7.9c2.5-3,5.6-4.4,8.2-3.5
							c2.6,0.9,4.1,4,4.2,7.9c2.5-3,5.6-4.4,8.2-3.5c2.6,0.9,4.1,4,4.2,7.9c2.5-3,5.6-4.4,8.2-3.5c4,1.4,3.1,14.6,3.1,14.6
							c-2.3,18.9-5.3,36-8.7,51.5c-20.3,16.9-41.7,34.8-63.7,53.3C1085.5,1197.5,1081.1,1121,1081.2,1119.9z"/>
					</g>
				</g>
			</g>
		</g>
	</g>
	<g>
		<g>
			<g>
				<g>
					<g>
						<path class="st11" d="M578.6,1359.6c-40.6,128.6,138.3,91.4,139.9,91c6.5-1.9,11.4,2.9,11.5,6.7c0,2.5-2.1,4.7-5.3,5.9
							c3.2,1.2,5.4,3.3,5.5,5.8c0,2.5-2.1,4.7-5.3,5.9c3.2,1.2,5.4,3.3,5.5,5.8c0,2.5-2.1,4.7-5.3,5.9c3.2,1.2,5.4,3.3,5.5,5.8
							c0,3.8-11.3,7.1-11.3,7.1c-178.8,31.8-207.2-72.5-178.8-151.6L578.6,1359.6z"/>
					</g>
				</g>
			</g>
		</g>
	</g>
</g>
</svg>
